<?xml version="1.0" encoding="UTF-8" standalone="no"?><!DOCTYPE svg PUBLIC "-//W3C//DTD SVG 1.1//EN" "http://www.w3.org/Graphics/SVG/1.1/DTD/svg11.dtd"><svg width="100%" height="100%" viewBox="0 0 1000 290" version="1.1" xmlns="http://www.w3.org/2000/svg" xmlns:xlink="http://www.w3.org/1999/xlink" xml:space="preserve" xmlns:serif="http://www.serif.com/" style="fill-rule:evenodd;clip-rule:evenodd;stroke-linejoin:round;stroke-miterlimit:2;"><g transform="matrix(1.47937,0,0,1.49387,-68283.9,3167.35)"><g transform="matrix(1.0098,0,0,1,-452.19,0)"><g transform="matrix(125,0,0,125,46150.5,-2027.48)"><path d="M0.054,-0l0.175,-0l0,-0.183l0.116,0c0.173,0 0.283,-0.128 0.283,-0.275c-0,-0.149 -0.111,-0.272 -0.282,-0.272l-0.292,0l-0,0.73Zm0.283,-0.572c0.065,0 0.114,0.047 0.114,0.114c-0,0.067 -0.049,0.113 -0.114,0.113l-0.108,0l-0,-0.227l0.108,0Z" style="fill-rule:nonzero;"/></g><g transform="matrix(125,0,0,125,46235.6,-2027.48)"><path d="M0.054,-0l0.493,-0l0,-0.167l-0.318,0l-0,-0.563l-0.175,0l-0,0.73Z" style="fill-rule:nonzero;"/></g><g transform="matrix(125,0,0,125,46311.3,-2027.48)"><path d="M0.008,-0l0.176,-0l0.038,-0.109l0.279,0l0.038,0.109l0.177,-0l-0.27,-0.73l-0.168,0l-0.27,0.73Zm0.354,-0.506l0.086,0.245l-0.172,0l0.086,-0.245Z" style="fill-rule:nonzero;"/></g><g transform="matrix(125,0,0,125,46387.5,-2027.48)"><path d="M0.254,-0l0.175,-0l-0,-0.303l0.24,-0.427l-0.188,0l-0.137,0.262l-0.14,-0.262l-0.189,0l0.239,0.424l0,0.306Z" style="fill-rule:nonzero;"/></g><g transform="matrix(125,0,0,125,46458.8,-2027.48)"><path d="M0.008,-0l0.176,-0l0.038,-0.109l0.279,0l0.038,0.109l0.177,-0l-0.27,-0.73l-0.168,0l-0.27,0.73Zm0.354,-0.506l0.086,0.245l-0.172,0l0.086,-0.245Z" style="fill-rule:nonzero;"/></g><g transform="matrix(125,0,0,125,46551.2,-2027.48)"><path d="M0.322,0.01c0.161,0 0.278,-0.101 0.278,-0.239c-0,-0.157 -0.129,-0.195 -0.238,-0.22c-0.088,-0.021 -0.148,-0.03 -0.148,-0.075c-0,-0.033 0.028,-0.065 0.087,-0.065c0.073,0 0.121,0.032 0.155,0.086l0.14,-0.109c-0.078,-0.084 -0.157,-0.13 -0.291,-0.13c-0.156,0 -0.267,0.097 -0.267,0.224c-0,0.15 0.124,0.189 0.23,0.213c0.103,0.025 0.151,0.035 0.151,0.084c-0,0.04 -0.032,0.068 -0.091,0.068c-0.082,0 -0.139,-0.038 -0.182,-0.103l-0.15,0.12c0.069,0.083 0.164,0.146 0.326,0.146Z" style="fill-rule:nonzero;"/></g></g><g transform="matrix(1.0098,0,0,1,-452.19,0)"><g transform="matrix(125,0,0,125,46150.5,-1927.48)"><path d="M0.054,-0l0.262,-0c0.217,-0 0.377,-0.157 0.377,-0.365c0,-0.207 -0.153,-0.365 -0.38,-0.365l-0.259,0l-0,0.73Zm0.251,-0.568c0.137,0 0.212,0.088 0.212,0.203c0,0.113 -0.081,0.202 -0.209,0.202l-0.08,0l-0,-0.405l0.077,0Z" style="fill-rule:nonzero;"/></g></g><g transform="matrix(1.0098,0,0,1,-453.113,0)"><g transform="matrix(125,0,0,125,46244.7,-1927.48)"><path d="M0.054,-0l0.504,-0l0,-0.162l-0.33,0l-0,-0.124l0.33,0l0,-0.162l-0.33,0l-0,-0.12l0.33,0l0,-0.162l-0.504,0l-0,0.73Z" style="fill-rule:nonzero;"/></g></g><g transform="matrix(1.0098,0,0,1,-454.192,0)"><g transform="matrix(125,0,0,125,46354.9,-1927.48)"><path d="M0.259,0.01c0.16,0 0.234,-0.093 0.234,-0.241l0,-0.499l-0.176,0l0,0.509c0,0.041 -0.019,0.071 -0.059,0.071c-0.04,-0 -0.061,-0.026 -0.071,-0.067l-0.167,0.066c0.03,0.097 0.115,0.161 0.239,0.161Z" style="fill-rule:nonzero;"/></g><g transform="matrix(125,0,0,125,46422,-1927.48)"><path d="M0.008,-0l0.176,-0l0.038,-0.109l0.279,0l0.038,0.109l0.177,-0l-0.27,-0.73l-0.168,0l-0.27,0.73Zm0.354,-0.506l0.086,0.245l-0.172,0l0.086,-0.245Z" style="fill-rule:nonzero;"/></g><g transform="matrix(125,0,0,125,46514.4,-1927.48)"><path d="M0.054,-0l0.167,-0l0,-0.459l0.287,0.459l0.169,-0l0,-0.73l-0.166,0l0,0.438l-0.275,-0.438l-0.182,0l0,0.73Z" style="fill-rule:nonzero;"/></g><g transform="matrix(125,0,0,125,46607.9,-1927.48)"><path d="M0.054,-0l0.262,-0c0.217,-0 0.377,-0.157 0.377,-0.365c0,-0.207 -0.153,-0.365 -0.38,-0.365l-0.259,0l-0,0.73Zm0.251,-0.568c0.137,0 0.212,0.088 0.212,0.203c0,0.113 -0.081,0.202 -0.209,0.202l-0.08,0l-0,-0.405l0.077,0Z" style="fill-rule:nonzero;"/></g><g transform="matrix(125,0,0,125,46701.1,-1927.48)"><rect x="0.057" y="-0.73" width="0.176" height="0.73" style="fill-rule:nonzero;"/></g><g transform="matrix(125,0,0,125,46739.1,-1927.48)"><path d="M0.008,-0l0.176,-0l0.038,-0.109l0.279,0l0.038,0.109l0.177,-0l-0.27,-0.73l-0.168,0l-0.27,0.73Zm0.354,-0.506l0.086,0.245l-0.172,0l0.086,-0.245Z" style="fill-rule:nonzero;"/></g></g></g></svg>