<?xml version="1.0" encoding="UTF-8" standalone="no"?><!DOCTYPE svg PUBLIC "-//W3C//DTD SVG 1.1//EN" "http://www.w3.org/Graphics/SVG/1.1/DTD/svg11.dtd"><svg width="100%" height="100%" viewBox="0 0 467 136" version="1.1" xmlns="http://www.w3.org/2000/svg" xmlns:xlink="http://www.w3.org/1999/xlink" xml:space="preserve" xmlns:serif="http://www.serif.com/" style="fill-rule:evenodd;clip-rule:evenodd;stroke-linejoin:round;stroke-miterlimit:2;"><g transform="matrix(0.690403,0,0,0.697168,-31867.2,1478.16)"><g transform="matrix(1.0098,0,0,1,-452.19,0)"><text x="46150.5px" y="-2027.48px" style="font-family:'SharpSansTRIAL-Extrabold', 'Sharp Sans TRIAL';font-weight:800;font-size:125px;">P<tspan x="46235.6px 46311.3px 46387.5px 46458.8px 46551.2px " y="-2027.48px -2027.48px -2027.48px -2027.48px -2027.48px ">LAYAS</tspan></text></g><g transform="matrix(1.0098,0,0,1,-452.19,0)"><text x="46150.5px" y="-1927.48px" style="font-family:'SharpSansTRIAL-Extrabold', 'Sharp Sans TRIAL';font-weight:800;font-size:125px;">D</text></g><g transform="matrix(1.0098,0,0,1,-453.113,0)"><text x="46244.7px" y="-1927.48px" style="font-family:'SharpSansTRIAL-Extrabold', 'Sharp Sans TRIAL';font-weight:800;font-size:125px;">E</text></g><g transform="matrix(1.0098,0,0,1,-454.192,0)"><text x="46354.9px" y="-1927.48px" style="font-family:'SharpSansTRIAL-Extrabold', 'Sharp Sans TRIAL';font-weight:800;font-size:125px;">J<tspan x="46422px 46514.4px 46607.9px 46701.1px 46739.1px " y="-1927.48px -1927.48px -1927.48px -1927.48px -1927.48px ">ANDIA</tspan></text></g></g></svg>